<svg xmlns="http://www.w3.org/2000/svg" xmlns:xlink="http://www.w3.org/1999/xlink" version="1.1" x="0px" y="0px" viewBox="0 0 100 125" style="enable-background:new 0 0 100 100;" xml:space="preserve"><g><circle cx="50" cy="36.9" r="15.1"/><path d="M60.9,50.5c-2.8,2.8-7.5,3.8-10.9,3.8c-3.5,0-8.2-1-11-3.9c-9.7,3.7-17,15.5-18.9,25.9c-0.6,3.1,1.6,5.7,4.7,6.7   c6.1,1.9,15.8,3,25.2,3c12.4,0,20.3-1.2,25.8-3.1c2.6-0.9,4.5-3.1,4.1-5.8C78.1,66.4,70.8,54.3,60.9,50.5z"/><path d="M38.3,48.8c-2.2-2.1-3.8-4.9-4.6-8c-1.7,0.6-3.4,0.8-4.9,0.8c-2.8,0-6.5-0.8-8.7-3.1c-7.6,2.9-13.4,12.3-15,20.5   c-0.5,2.5,1.3,4.5,3.7,5.3c3.3,1,7.8,1.7,12.7,2.1C25,58.9,30.9,51.7,38.3,48.8z"/><path d="M28.7,39.8c1.6,0,3.2-0.3,4.6-0.9c-0.1-0.7-0.1-1.4-0.1-2.1c0-5.4,2.6-10.3,6.6-13.4c-1.8-4.4-6.1-7.5-11.1-7.5   c-6.6,0-11.9,5.3-11.9,11.9S22.1,39.8,28.7,39.8z"/><path d="M94.9,59.7c-1.4-8.5-7.2-18-15-21.1c-2.2,2.2-5.9,3-8.7,3c-1.5,0-3.3-0.2-4.9-0.8c-0.8,3.1-2.4,5.8-4.6,8   c7.4,3,13.3,10.1,16.8,17.7c5.8-0.4,10-1.1,13.2-2.3C93.8,63.6,95.3,61.9,94.9,59.7z"/><path d="M66.8,36.8c0,0.7,0,1.4-0.1,2.1c1.4,0.6,3,0.9,4.6,0.9c6.6,0,11.9-5.3,11.9-11.9s-5.3-11.9-11.9-11.9   c-5,0-9.3,3.1-11.1,7.5C64.2,26.5,66.8,31.3,66.8,36.8z"/></g><text x="0" y="115" fill="#000000" font-size="5px" font-weight="bold" font-family="'Helvetica Neue', Helvetica, Arial-Unicode, Arial, Sans-serif">Created by parkjisun</text><text x="0" y="120" fill="#000000" font-size="5px" font-weight="bold" font-family="'Helvetica Neue', Helvetica, Arial-Unicode, Arial, Sans-serif">from the Noun Project</text></svg>